HIERARCHY
ROOT joint_Root
{
	OFFSET 0.0 0.0 0.0
	CHANNELS 6 Xposition Yposition Zposition Zrotation Xrotation Yrotation 
	JOINT Hips
	{
		OFFSET 4.5925 91.4895 -427.239
		CHANNELS 6 Xposition Yposition Zposition Zrotation Xrotation Yrotation 
		JOINT Spine
		{
			OFFSET 15.7357 0.0 0.0
			CHANNELS 6 Xposition Yposition Zposition Zrotation Xrotation Yrotation 
			JOINT Chest
			{
				OFFSET 8.98455 -0.406207 0.0
				CHANNELS 6 Xposition Yposition Zposition Zrotation Xrotation Yrotation 
				JOINT Neck
				{
					OFFSET 16.3773 0.0 0.0
					CHANNELS 6 Xposition Yposition Zposition Zrotation Xrotation Yrotation 
					JOINT Head
					{
						OFFSET 6.45672 0.0 0.0
						CHANNELS 6 Xposition Yposition Zposition Zrotation Xrotation Yrotation 
						End Site
						{
							OFFSET 0.0 0.0 0.0
						}
					}
				}
				JOINT Shoulder_L
				{
					OFFSET 12.9942 -0.242716 4.98039
					CHANNELS 6 Xposition Yposition Zposition Zrotation Xrotation Yrotation 
					JOINT UpperArm_L
					{
						OFFSET 5.34809 0.0 0.0
						CHANNELS 6 Xposition Yposition Zposition Zrotation Xrotation Yrotation 
						JOINT LowerArm_L
						{
							OFFSET 24.3286 1.87007e-05 0.0
							CHANNELS 6 Xposition Yposition Zposition Zrotation Xrotation Yrotation 
							JOINT Hand_L
							{
								OFFSET 22.2916 0.0 0.0
								CHANNELS 6 Xposition Yposition Zposition Zrotation Xrotation Yrotation 
								End Site
								{
									OFFSET 0.0 0.0 0.0
								}
							}
						}
					}
				}
				JOINT Shoulder_R
				{
					OFFSET 12.9945 -0.242716 -4.98039
					CHANNELS 6 Xposition Yposition Zposition Zrotation Xrotation Yrotation 
					JOINT UpperArm_R
					{
						OFFSET -5.34813 0.0 0.0
						CHANNELS 6 Xposition Yposition Zposition Zrotation Xrotation Yrotation 
						JOINT LowerArm_R
						{
							OFFSET -24.3289 0.000322201 0.0
							CHANNELS 6 Xposition Yposition Zposition Zrotation Xrotation Yrotation 
							JOINT Hand_R
							{
								OFFSET -22.2915 -0.000108084 0.0
								CHANNELS 6 Xposition Yposition Zposition Zrotation Xrotation Yrotation 
								End Site
								{
									OFFSET 0.0 0.0 0.0
								}
							}
						}
					}
				}
			}
		}
		JOINT UpperLeg_L
		{
			OFFSET -2.19248 -6.46944 0.0
			CHANNELS 6 Xposition Yposition Zposition Zrotation Xrotation Yrotation 
			JOINT LowerLeg_L
			{
				OFFSET 39.0811 0.0 -1.23785e-05
				CHANNELS 6 Xposition Yposition Zposition Zrotation Xrotation Yrotation 
				JOINT Foot_L
				{
					OFFSET 40.9854 0.0 -1.26872e-05
					CHANNELS 6 Xposition Yposition Zposition Zrotation Xrotation Yrotation 
					JOINT Toes_L
					{
						OFFSET 11.7543 0.0 0.0
						CHANNELS 6 Xposition Yposition Zposition Zrotation Xrotation Yrotation 
						End Site
						{
							OFFSET 0.0 0.0 0.0
						}
					}
				}
			}
		}
		JOINT UpperLeg_R
		{
			OFFSET -2.19251 6.46944 0.0
			CHANNELS 6 Xposition Yposition Zposition Zrotation Xrotation Yrotation 
			JOINT LowerLeg_R
			{
				OFFSET -39.0811 -0.00228153 -0.0401928
				CHANNELS 6 Xposition Yposition Zposition Zrotation Xrotation Yrotation 
				JOINT Foot_R
				{
					OFFSET -40.9854 0.0 0.0
					CHANNELS 6 Xposition Yposition Zposition Zrotation Xrotation Yrotation 
					JOINT Toes_R
					{
						OFFSET -11.7543 0.0 0.0
						CHANNELS 6 Xposition Yposition Zposition Zrotation Xrotation Yrotation 
						End Site
						{
							OFFSET 0.0 0.0 0.0
						}
					}
				}
			}
		}
	}
}
MOTION
Frames:	4
Frame Time:	0.0333333
0.000000 0.000000 0.000000 0.000000 0.000000 -0.000000 -1.386990 90.205100 -3.822910 88.907800 -1.922960 10.559500 15.735700 0.000005 -0.000001 86.597700 77.020100 -87.234000 8.984550 -0.406207 -0.000000 18.144200 -1.569280 -1.024880 16.377300 -0.000001 -0.000001 12.132700 -3.826850 2.991740 6.456720 -0.000001 -0.000000 -6.683570 -1.907440 -3.310590 12.994200 -0.242716 4.980390 -91.210300 5.239170 -76.973300 5.348090 -0.000007 -0.000001 -48.936500 42.301800 -34.773600 24.328600 0.000019 0.000005 6.499050 16.799100 -21.512300 22.291600 -0.000001 0.000005 10.520300 5.242090 1.640810 12.994500 -0.242716 -4.980390 89.572700 1.778530 -76.489100 -5.348130 -0.000001 -0.000004 -72.666300 -3.523080 -73.172200 -24.328900 0.000322 -0.000009 20.364300 -10.999800 -117.205000 -22.291500 -0.000108 -0.000004 21.368800 5.206470 2.556480 -2.192480 -6.469440 -0.000000 -173.800000 -10.395100 -4.520920 39.081100 -0.000007 -0.000012 -0.205403 0.292405 35.087000 40.985400 -0.000006 -0.000013 -0.683278 4.293380 -69.734900 11.754300 -0.000000 0.000003 -0.000128 -0.001273 -16.626100 -2.192510 6.469440 -0.000001 176.457000 19.303700 176.857000 -39.081100 -0.002282 -0.040193 -0.040621 0.063992 34.459200 -40.985400 0.000008 0.000006 6.745820 11.067000 -71.348200 -11.754300 -0.000006 -0.000006 -0.002365 -0.033193 -17.922900
0.000000 0.000000 0.000000 0.000000 0.000000 -0.000000 -1.395200 90.194000 -3.802010 88.926400 -1.870770 10.612100 15.735700 0.000005 -0.000001 86.625400 77.028900 -87.274900 8.984550 -0.406207 -0.000000 18.127300 -1.557130 -1.053480 16.377300 -0.000001 -0.000001 12.278900 -3.874940 2.995250 6.456720 -0.000001 -0.000000 -6.452170 -2.005550 -3.235130 12.994200 -0.242716 4.980390 -91.207400 5.234700 -76.992700 5.348090 -0.000007 -0.000001 -48.767100 42.335300 -34.941500 24.328600 0.000019 0.000005 6.511170 16.745200 -21.610100 22.291600 -0.000001 0.000005 10.599300 5.242220 1.637440 12.994500 -0.242716 -4.980390 89.562900 1.815250 -76.459000 -5.348130 -0.000001 -0.000004 -72.702300 -3.432910 -73.090900 -24.328900 0.000322 -0.000009 20.453200 -11.018200 -117.133000 -22.291500 -0.000108 -0.000004 21.393100 5.204990 2.593700 -2.192480 -6.469440 -0.000000 -173.809000 -10.352700 -4.484300 39.081100 -0.000007 -0.000012 -0.209266 0.297492 35.124300 40.985400 -0.000006 -0.000013 -0.695900 4.268740 -69.758300 11.754300 -0.000000 0.000003 -0.000120 -0.001199 -16.623400 -2.192510 6.469440 -0.000001 176.409000 19.304100 176.911000 -39.081100 -0.002282 -0.040193 -0.044758 0.069885 34.510800 -40.985400 0.000008 0.000006 6.716090 11.023000 -71.388100 -11.754300 -0.000006 -0.000006 -0.002449 -0.034206 -17.964100
0.000000 0.000000 0.000000 0.000000 0.000000 -0.000000 -1.403410 90.183700 -3.775480 88.928900 -1.849500 10.675300 15.735700 0.000005 -0.000001 86.604800 77.020400 -87.261400 8.984550 -0.406207 -0.000000 18.143600 -1.567930 -1.065700 16.377300 -0.000001 -0.000001 12.465100 -3.905860 3.006700 6.456720 -0.000001 -0.000000 -6.187640 -2.017640 -3.223710 12.994200 -0.242716 4.980390 -91.199300 5.199510 -76.992300 5.348090 -0.000007 -0.000001 -48.760100 42.248600 -35.004800 24.328600 0.000019 0.000005 6.544860 16.732600 -21.726800 22.291600 -0.000001 0.000005 10.609400 5.240510 1.682130 12.994500 -0.242716 -4.980390 89.567000 1.802850 -76.491300 -5.348130 -0.000001 -0.000004 -72.767200 -3.381900 -73.020700 -24.328900 0.000322 -0.000009 20.343800 -10.949700 -117.125000 -22.291500 -0.000108 -0.000004 21.366300 5.208520 2.504630 -2.192480 -6.469440 -0.000000 -173.800000 -10.325000 -4.420840 39.081100 -0.000007 -0.000012 -0.207152 0.294062 35.163200 40.985400 -0.000006 -0.000013 -0.698181 4.270170 -69.798400 11.754300 -0.000000 0.000003 -0.000117 -0.001178 -16.622600 -2.192510 6.469440 -0.000001 176.384000 19.308600 176.982000 -39.081100 -0.002282 -0.040193 -0.043543 0.068010 34.553200 -40.985400 0.000008 0.000006 6.737530 10.994200 -71.437300 -11.754300 -0.000006 -0.000006 -0.002394 -0.033539 -17.937000
0.000000 0.000000 0.000000 0.000000 0.000000 -0.000000 -1.407270 90.175700 -3.754600 88.919800 -1.857340 10.732000 15.735700 0.000005 -0.000001 86.663900 77.004200 -87.316600 8.984550 -0.406207 -0.000000 18.177400 -1.543280 -1.061400 16.377300 -0.000001 -0.000001 12.624000 -3.909330 2.982440 6.456720 -0.000001 -0.000000 -5.960250 -2.057000 -3.247970 12.994200 -0.242716 4.980390 -91.200000 5.205710 -77.000400 5.348090 -0.000007 -0.000001 -48.742800 42.157900 -35.062700 24.328600 0.000019 0.000005 6.570690 16.729500 -21.808900 22.291600 -0.000001 0.000005 10.628800 5.241580 1.654300 12.994500 -0.242716 -4.980390 89.565400 1.805220 -76.462100 -5.348130 -0.000001 -0.000004 -72.750700 -3.332350 -72.977000 -24.328900 0.000322 -0.000009 20.422800 -10.991700 -117.115000 -22.291500 -0.000108 -0.000004 21.324900 5.204100 2.616230 -2.192480 -6.469440 -0.000000 -173.770000 -10.328000 -4.359090 39.081100 -0.000007 -0.000012 -0.205586 0.291472 35.197100 40.985400 -0.000006 -0.000013 -0.691809 4.308700 -69.835200 11.754300 -0.000000 0.000003 -0.000134 -0.001317 -16.627800 -2.192510 6.469440 -0.000001 176.377000 19.281200 177.044000 -39.081100 -0.002282 -0.040193 -0.043458 0.067818 34.580200 -40.985400 0.000008 0.000006 6.741660 10.973500 -71.466600 -11.754300 -0.000006 -0.000006 -0.002363 -0.033170 -17.921900
